<?xml version="1.0" standalone="no"?>
<!DOCTYPE svg PUBLIC "-//W3C//DTD SVG 20010904//EN"
 "http://www.w3.org/TR/2001/REC-SVG-20010904/DTD/svg10.dtd">
<svg version="1.0" xmlns="http://www.w3.org/2000/svg"
 width="400.000000pt" height="400.000000pt" viewBox="0 0 400.000000 400.000000"
 preserveAspectRatio="xMidYMid meet">
<metadata>
Created by potrace 1.11, written by Peter Selinger 2001-2013
</metadata>
<g transform="translate(0.000000,400.000000) scale(0.100000,-0.100000)"
fill="#000000" stroke="none">
<path d="M1889 3220 c-110 -10 -241 -43 -347 -86 -62 -26 -97 -34 -142 -34
-69 0 -100 -21 -100 -68 0 -22 -11 -36 -49 -65 -64 -49 -168 -154 -219 -220
-373 -485 -334 -1173 92 -1609 31 -31 56 -63 56 -70 1 -25 40 -100 62 -119 68
-58 151 -79 318 -79 103 0 121 2 129 18 5 9 19 148 31 307 12 160 23 291 24
293 2 1 27 -3 57 -8 71 -14 271 -14 351 0 276 48 497 231 596 494 94 251 101
591 16 784 -32 73 -24 79 11 7 84 -179 98 -455 34 -710 -26 -103 -104 -264
-166 -340 -98 -120 -246 -213 -408 -256 -64 -17 -111 -22 -235 -22 -90 -1
-171 3 -193 10 -34 11 -37 10 -41 -10 -3 -12 -14 -147 -24 -299 -11 -152 -23
-281 -26 -287 -4 -6 -35 -11 -69 -12 l-62 -1 60 -19 c167 -53 405 -67 577 -35
511 96 898 483 994 994 22 114 22 320 0 434 -120 633 -689 1066 -1327 1008z
m257 -585 c29 -8 62 -28 79 -46 l30 -31 -48 25 c-61 33 -131 41 -261 32 l-104
-7 -6 -71 c-3 -40 -12 -193 -21 -341 -8 -148 -17 -271 -19 -273 -16 -17 -21
20 -14 119 5 62 14 221 21 353 l12 240 35 6 c71 13 246 9 296 -6z"/>
</g>
</svg>
